<?xml version="1.0" standalone="no"?>
<!DOCTYPE svg PUBLIC "-//W3C//DTD SVG 20010904//EN"
 "http://www.w3.org/TR/2001/REC-SVG-20010904/DTD/svg10.dtd">
<svg version="1.0" xmlns="http://www.w3.org/2000/svg"
 width="38.000000pt" height="42.000000pt" viewBox="0 0 38.000000 42.000000"
 preserveAspectRatio="xMidYMid meet">
<metadata>
Created by potrace 1.16, written by Peter Selinger 2001-2019
</metadata>
<g transform="translate(0.000000,42.000000) scale(0.006441,-0.004918)"
fill="#000000" stroke="none">
<path d="M3170 8409 c-492 -55 -1049 -236 -1342 -435 -125 -85 -210 -159 -343
-295 -161 -165 -209 -229 -347 -464 -36 -60 -113 -184 -170 -275 -58 -91 -150
-237 -203 -325 -54 -88 -108 -176 -121 -195 -114 -180 -400 -662 -424 -716
-45 -100 -70 -205 -80 -339 -13 -163 -13 -3326 0 -3433 11 -99 54 -194 136
-299 29 -37 85 -115 125 -173 270 -392 550 -662 902 -869 303 -177 580 -277
1092 -390 117 -26 429 -76 575 -93 126 -14 622 -18 785 -6 316 24 756 137 922
236 97 58 237 167 319 247 60 58 70 77 289 520 418 845 416 841 415 910 -2 48
7 83 41 175 l42 115 1 605 c0 664 1 657 -60 697 -27 17 -71 18 -844 18 -773 0
-817 -1 -844 -18 -37 -25 -52 -63 -76 -201 -26 -142 -49 -216 -103 -326 -75
-153 -217 -274 -386 -329 -56 -18 -208 -13 -295 9 -242 64 -477 265 -545 467
-21 62 -21 68 -21 1506 l0 1443 130 42 c164 53 293 76 383 69 97 -8 136 -31
169 -97 l26 -55 6 -669 c4 -368 9 -687 12 -708 7 -42 44 -85 83 -96 14 -4 386
-7 826 -7 613 0 805 3 821 12 27 16 56 60 234 353 307 506 410 680 421 707 35
91 59 609 38 808 -42 407 -193 789 -437 1110 -63 83 -324 347 -397 402 -184
139 -640 298 -1002 349 -131 18 -630 27 -753 13z m715 -303 c329 -54 723 -182
850 -276 213 -158 439 -438 558 -690 117 -248 173 -485 184 -785 5 -140 -9
-421 -22 -434 -4 -3 -1186 -49 -1192 -46 -2 1 4 203 14 449 14 404 15 450 1
480 -27 56 -214 242 -302 300 -190 126 -382 163 -604 116 -51 -11 -96 -19
-100 -18 -4 1 -14 -1 -22 -5 -8 -3 -61 -17 -117 -31 -424 -106 -687 -346 -791
-722 l-27 -99 0 -1545 c0 -1449 1 -1549 18 -1610 84 -308 370 -589 712 -699
177 -57 350 -66 491 -26 381 110 604 376 708 848 l6 27 620 0 620 0 0 -489 0
-490 -26 -73 c-117 -325 -369 -622 -739 -871 -98 -66 -150 -88 -353 -148 -491
-143 -1011 -176 -1498 -94 -218 37 -313 62 -730 196 -407 131 -725 469 -965
1024 l-43 100 -4 253 c-2 173 0 252 7 252 14 0 14 47 1 55 -13 8 -13 2860 1
3055 43 639 265 1134 664 1480 168 146 301 228 493 304 293 116 598 192 897
226 127 14 573 5 690 -14z m-322 -1162 c3 -4 -29 -47 -71 -98 -42 -50 -108
-133 -147 -183 -40 -53 -77 -92 -87 -93 -10 0 -18 3 -18 8 0 4 36 55 80 112
44 58 104 137 132 177 29 39 62 73 73 76 11 2 23 5 26 6 3 0 8 -2 12 -5z m197
-56 c0 -12 -179 -247 -234 -307 -28 -31 -59 -67 -68 -80 l-17 -23 -31 22 -31
22 28 36 c61 82 141 182 216 268 77 90 79 92 108 81 16 -6 29 -15 29 -19z
m167 -125 c7 -18 -89 -160 -165 -244 -32 -35 -87 -102 -121 -148 l-63 -83 -29
52 -29 52 22 32 c12 17 45 56 73 87 28 31 84 100 124 155 41 54 85 111 99 126
l25 27 29 -21 c16 -11 32 -27 35 -35z m-21 -565 c-41 -57 -110 -146 -153 -198
-44 -52 -92 -113 -106 -135 l-27 -40 0 49 c0 41 6 56 34 90 18 23 42 59 54 81
11 22 73 103 137 180 64 77 120 147 124 155 3 8 7 -6 9 -32 3 -44 -1 -52 -72
-150z m-3063 -100 c-3 -46 -13 -96 -21 -113 -40 -81 -364 -534 -370 -517 -7
21 41 140 82 202 23 36 102 165 175 288 74 122 135 222 137 222 2 0 1 -37 -3
-82z m3056 -195 c-39 -54 -97 -127 -128 -163 -31 -36 -74 -87 -96 -115 -21
-27 -43 -54 -47 -59 -4 -6 -8 1 -8 15 0 45 113 222 230 359 30 36 69 84 85
107 l30 42 3 -45 c3 -41 -2 -51 -69 -141z m-3076 -230 c-9 -15 -52 -75 -93
-133 -93 -129 -234 -333 -277 -402 l-33 -52 0 69 c0 52 4 74 18 89 21 24 349
475 378 521 l19 29 3 -46 c2 -32 -3 -56 -15 -75z m2976 -140 c-89 -131 -166
-242 -171 -247 -4 -6 -8 12 -8 40 0 47 5 55 88 160 48 60 118 145 155 188 37
43 73 86 80 97 7 11 13 15 15 9 2 -5 -70 -116 -159 -247z m1507 72 c-13 -34
-400 -665 -408 -665 -4 0 -8 4 -8 9 0 18 75 170 129 261 31 52 90 160 131 240
75 144 96 169 144 170 12 0 16 -5 12 -15z m-516 -9 c0 -7 -91 -168 -138 -243
-27 -43 -93 -153 -146 -245 -97 -167 -98 -168 -133 -168 -19 0 -33 3 -31 8 60
126 148 288 196 361 34 51 82 135 106 186 27 57 52 95 63 98 23 6 83 8 83 3z
m-230 -11 c0 -16 -91 -182 -140 -255 -31 -47 -82 -137 -113 -200 -60 -125
-108 -190 -138 -190 -10 0 -19 2 -19 5 0 22 145 287 197 359 36 50 83 127 105
171 46 92 64 115 90 115 10 0 18 -2 18 -5z m-424 -147 c-52 -79 -122 -179
-155 -223 -34 -44 -72 -100 -85 -124 -34 -65 -104 -151 -122 -151 -9 0 -14 6
-11 13 5 13 281 418 384 565 28 39 51 62 63 62 16 0 1 -28 -74 -142z m207 70
c-22 -40 -66 -109 -97 -153 -32 -44 -87 -138 -123 -209 -93 -185 -108 -206
-149 -206 -33 0 -45 12 -24 25 5 3 25 34 45 69 19 34 56 89 82 122 27 34 102
142 168 242 66 100 124 182 128 182 5 0 -9 -33 -30 -72z m702 -18 c-25 -50
-74 -139 -110 -199 -35 -59 -89 -162 -121 -229 -57 -121 -57 -122 -92 -122
-42 0 -42 1 37 123 77 121 234 376 280 454 54 94 58 76 6 -27z m-4256 -229
c-29 -42 -100 -137 -158 -211 -58 -74 -129 -171 -158 -214 l-53 -79 0 67 c0
64 2 70 48 134 26 36 61 88 77 114 48 76 164 246 229 337 l61 85 3 -78 3 -78
-52 -77z m50 -196 l0 -64 -77 -95 c-42 -52 -127 -154 -189 -228 -61 -73 -121
-144 -132 -158 l-20 -25 -1 26 c0 14 19 53 46 90 25 35 58 89 75 119 16 30 68
105 115 165 47 61 106 138 132 173 26 34 48 62 49 62 1 0 2 -29 2 -65z m-50
-793 c-28 -37 -122 -158 -208 -269 l-156 -203 -3 46 c-3 40 1 50 31 83 19 21
54 67 78 102 23 35 88 118 144 185 56 66 114 139 131 162 l29 41 3 -40 c3 -36
-3 -49 -49 -107z m-156 -648 c-161 -182 -209 -231 -211 -215 -2 15 57 93 205
272 206 250 208 252 211 216 3 -35 -7 -49 -205 -273z m203 41 c-3 -9 -97 -126
-208 -262 -179 -216 -203 -243 -206 -219 -3 22 21 54 139 189 287 325 289 327
275 292z m4 -229 c0 -43 -7 -52 -211 -297 l-210 -252 3 45 c3 43 15 61 208
297 113 138 206 251 208 251 1 0 2 -20 2 -44z m0 -275 l0 -48 -207 -241 -208
-240 -3 39 c-3 38 4 49 205 289 114 138 209 250 210 250 2 0 3 -22 3 -49z m-8
-284 c-5 -7 -98 -128 -206 -269 -109 -142 -199 -258 -202 -258 -2 0 -4 24 -4
53 l0 52 208 240 c168 195 208 235 210 217 2 -13 -1 -28 -6 -35z m-198 -504
c-114 -158 -209 -290 -211 -292 -1 -2 -3 13 -3 35 0 35 20 64 208 309 127 165
208 263 210 253 2 -9 -89 -145 -204 -305z m234 -600 c-129 -129 -195 -188
-200 -180 -5 8 59 79 184 204 129 129 195 188 200 180 5 -8 -59 -79 -184 -204z
m272 50 c0 -8 -82 -95 -182 -193 -139 -136 -185 -176 -195 -168 -7 6 -13 15
-13 22 0 6 82 93 182 193 140 140 185 180 195 171 7 -6 13 -17 13 -25z m88
-124 c3 -15 -322 -389 -338 -389 -5 0 -17 12 -27 26 l-17 26 180 178 c98 97
184 176 189 175 6 -1 11 -8 13 -16z m-52 -323 c-86 -108 -160 -196 -165 -196
-4 0 -16 9 -25 19 -17 19 -12 26 151 210 144 162 170 188 182 176 12 -12 -9
-42 -143 -209z m129 -125 l-146 -201 -29 22 c-16 12 -26 26 -23 32 4 6 74 96
156 199 149 187 150 188 169 169 20 -19 19 -21 -127 -221z m263 99 l23 -19
-86 -98 c-48 -53 -116 -137 -153 -185 -36 -48 -68 -88 -71 -88 -37 1 -23 28
111 213 79 108 145 197 148 197 3 -1 15 -9 28 -20z m3358 -306 c-96 -192 -128
-242 -92 -147 16 41 71 221 82 266 6 28 106 115 112 98 1 -5 -44 -102 -102
-217z m-3210 202 c19 -14 19 -15 -2 -38 -11 -13 -83 -93 -159 -178 -75 -85
-140 -156 -144 -157 -3 -2 -12 1 -20 6 -12 8 -4 24 40 85 71 97 241 295 255
295 5 1 19 -5 30 -13z m156 -87 c18 -10 16 -15 -44 -77 -35 -37 -98 -112 -140
-167 -41 -55 -85 -108 -96 -118 -19 -17 -22 -17 -51 -2 l-31 16 161 179 c89
99 166 180 171 180 5 0 18 -5 30 -11z m180 -72 l28 -12 -151 -190 c-82 -104
-152 -191 -154 -193 -3 -3 -25 3 -50 12 l-45 18 38 46 c21 26 58 74 82 107 57
75 199 225 214 225 6 -1 23 -6 38 -13z m2663 -199 c-36 -111 -69 -208 -73
-214 -9 -14 -94 -75 -98 -71 -6 6 73 201 136 337 54 117 86 167 98 155 2 -2
-26 -95 -63 -207z m-2480 142 c3 -5 -62 -99 -144 -209 l-151 -200 -30 10 -30
11 41 51 c23 29 94 118 158 199 108 138 139 165 156 138z m188 -60 c5 -4 -37
-56 -92 -114 -55 -59 -133 -145 -173 -191 -62 -72 -98 -101 -98 -80 0 3 68 95
150 205 143 190 152 200 178 194 15 -4 31 -10 35 -14z m1959 -112 c-87 -197
-168 -368 -180 -380 -28 -28 -19 6 27 103 49 102 131 328 131 361 0 11 12 21
33 26 17 5 34 8 36 6 2 -1 -19 -54 -47 -116z m-1809 74 c15 -6 -7 -39 -133
-204 l-151 -197 -37 6 c-20 3 -39 7 -41 9 -5 4 87 110 205 235 51 54 100 111
110 128 20 33 20 33 47 23z m1661 -29 c-14 -58 -68 -193 -131 -325 -59 -122
-69 -138 -95 -143 -16 -4 -31 -5 -34 -3 -4 5 59 149 102 233 49 94 117 220
131 243 19 31 35 28 27 -5z m-1478 -9 c20 -5 7 -26 -129 -205 -150 -199 -167
-215 -204 -191 -13 8 282 402 301 402 6 0 21 -3 32 -6z m156 -51 c-10 -16 -74
-108 -141 -205 -67 -97 -125 -179 -129 -181 -4 -3 -15 -2 -25 2 -16 6 -1 30
99 161 64 85 134 176 156 203 43 50 72 65 40 20z m953 -53 c-20 -39 -64 -119
-99 -178 -35 -59 -76 -132 -92 -164 -25 -52 -30 -56 -66 -60 -21 -2 -38 -3
-38 -3 0 1 33 58 73 127 129 223 211 346 232 350 11 2 21 3 23 2 2 -1 -13 -34
-33 -74z m-761 48 c-27 -45 -276 -408 -282 -411 -4 -2 -17 -1 -30 2 -21 6 -14
19 120 214 129 188 145 207 171 207 20 0 26 -4 21 -12z m549 -90 c-33 -51 -86
-139 -118 -196 -79 -137 -109 -172 -146 -172 -16 0 -29 3 -29 6 0 3 68 106
151 229 108 161 157 225 172 227 12 2 24 3 26 1 2 -1 -23 -44 -56 -95z m-347
84 c14 -9 -299 -432 -320 -432 -8 0 -17 4 -21 10 -3 5 57 104 135 220 126 188
143 210 168 210 15 0 32 -4 38 -8z m68 -219 c-81 -120 -148 -219 -149 -221 -2
-2 -22 -2 -45 0 l-42 3 104 140 c57 77 129 175 161 218 50 67 61 77 88 77 30
0 30 0 -117 -217z"/>
</g>
</svg>
